<svg version="1.1" id="Layer_1" xmlns="http://www.w3.org/2000/svg" xmlns:xlink="http://www.w3.org/1999/xlink" x="0px" y="0px"
	 width="100%" viewBox="0 0 1000 1000" enable-background="new 0 0 1000 1000" xml:space="preserve">
<path fill="#000000" opacity="1.000000" stroke="none" 
	d="
M581.000000,1001.000000 
	C387.333344,1001.000000 194.166672,1001.000000 1.000000,1001.000000 
	C1.000000,667.666687 1.000000,334.333344 1.000000,1.000000 
	C334.333344,1.000000 667.666687,1.000000 1001.000000,1.000000 
	C1001.000000,334.333344 1001.000000,667.666687 1001.000000,1001.000000 
	C861.166687,1001.000000 721.333313,1001.000000 581.000000,1001.000000 
M366.376343,838.064453 
	C366.528687,837.376282 366.681061,836.688110 366.988617,835.356750 
	C367.030640,834.918640 367.072662,834.480469 367.790710,833.723083 
	C368.566772,830.828247 369.342834,827.933472 370.813293,824.730408 
	C371.581299,821.140320 372.349335,817.550171 373.004242,813.220642 
	C369.965759,805.662659 363.771881,806.706055 360.085419,809.725342 
	C358.968079,810.640381 358.131714,811.898621 357.011688,813.783875 
	C355.234619,819.207214 353.457581,824.630554 351.604889,830.284729 
	C346.201874,826.931885 343.564972,830.487976 340.215332,834.271606 
	C339.438141,836.834106 338.660950,839.396606 337.412689,842.071838 
	C337.108215,842.257690 336.956482,842.528931 336.338379,843.128845 
	C335.859772,844.066589 335.381165,845.004395 334.962311,845.972961 
	C334.962311,845.972961 334.932709,845.912476 334.270203,846.185547 
	C332.806305,845.763062 331.117157,850.735779 329.992157,845.245605 
	C331.030731,842.179871 332.069275,839.114197 333.793304,835.718872 
	C334.567963,832.825928 335.342590,829.933044 336.810577,826.695374 
	C338.477173,819.865906 335.475037,812.507751 329.219513,809.149048 
	C327.871582,808.425293 325.760132,809.123474 323.393799,808.914124 
	C322.634094,808.595337 321.874359,808.276489 321.008453,807.157898 
	C322.125641,803.493835 323.089355,799.773926 324.397308,796.179260 
	C326.191467,791.248596 324.952850,787.337463 321.020111,784.403320 
	C316.242493,780.838806 313.698853,784.505371 310.055328,787.553589 
	C309.331177,790.022339 308.607025,792.491089 307.213470,795.271179 
	C306.081390,798.377930 304.880737,801.461792 303.832031,804.596436 
	C301.896515,810.382019 300.050171,816.197510 297.872375,822.661743 
	C296.876862,824.760254 295.881348,826.858765 294.037292,828.996826 
	C289.836273,828.656738 285.981873,829.012817 283.949371,833.553894 
	C282.691772,836.363831 281.292969,839.110596 279.196655,841.998535 
	C277.759705,843.318115 276.322754,844.637695 274.179565,846.000732 
	C273.119537,846.389343 272.059540,846.777954 270.178772,847.012207 
	C265.889618,847.249817 261.600494,847.487427 257.711975,847.702881 
	C256.342621,845.336487 255.087997,843.168457 253.988052,840.220825 
	C254.028061,839.163269 254.068069,838.105774 254.781738,836.733643 
	C255.798950,833.489258 256.816162,830.244812 257.988647,826.357361 
	C258.030396,825.919250 258.072144,825.481140 258.766296,824.753174 
	C259.455322,822.835388 260.144318,820.917664 260.991333,818.255920 
	C261.699188,816.184631 262.407074,814.113403 263.773834,811.743042 
	C264.221558,810.175415 264.669281,808.607788 265.777832,806.738281 
	C265.926544,805.941467 265.799683,804.748779 266.273529,804.418884 
	C267.985992,803.226562 269.900452,802.324402 271.738708,801.312744 
	C271.690796,803.162659 271.639526,805.012512 271.596069,806.862488 
	C271.563568,808.246948 270.948151,810.093628 271.609192,810.942383 
	C276.411804,817.108765 280.063934,820.690186 287.718231,811.801392 
	C288.423248,809.534363 289.128265,807.267395 289.987946,804.122437 
	C289.936401,801.748169 289.884888,799.373962 289.987823,796.313293 
	C289.696808,795.528076 289.405762,794.742920 289.005341,793.239746 
	C288.041565,792.145569 287.077820,791.051453 285.837555,789.297058 
	C283.891846,787.920227 281.946106,786.543457 279.205292,785.004150 
	C271.738342,781.035645 264.556061,783.086792 258.211121,787.144836 
	C252.695282,790.672485 248.529190,795.858093 247.211746,803.274597 
	C245.863388,807.516541 244.515015,811.758423 242.848221,816.691833 
	C241.126038,821.825500 239.403870,826.959106 237.049530,832.662170 
	C236.755219,835.108032 236.460922,837.553833 236.011963,840.790894 
	C236.063522,841.860718 236.115082,842.930603 236.012314,844.755554 
	C237.994614,847.875793 239.976913,850.996094 242.071365,854.586670 
	C242.256454,854.891174 242.527161,855.042480 243.150574,855.688354 
	C247.973495,860.884644 254.343384,862.216431 261.887451,862.987915 
	C266.258423,862.269775 270.629395,861.551575 275.750824,860.987610 
	C278.206848,859.671265 280.662842,858.354919 283.728516,856.815186 
	C284.485809,856.487915 285.243073,856.160645 286.430511,855.990845 
	C286.430511,855.990845 286.885651,856.042603 287.174225,856.717285 
	C288.392731,859.935547 289.863403,862.872375 294.762817,862.987671 
	C297.452972,861.325256 300.143158,859.662842 302.988129,857.242249 
	C303.603210,855.161316 304.218292,853.080322 304.991608,850.251099 
	C306.700134,845.180786 308.408630,840.110413 310.633453,834.891968 
	C310.853638,834.234558 311.073792,833.577209 311.944183,832.429871 
	C313.001038,829.633972 314.057861,826.838135 315.569885,823.990906 
	C315.569885,823.990906 316.000000,823.833374 316.712280,823.804260 
	C317.598175,823.144714 318.484100,822.485107 319.369995,821.825500 
	C319.667664,822.068604 319.965363,822.311707 320.263031,822.554810 
	C319.564270,824.369751 318.865479,826.184692 318.011993,828.792725 
	C316.521332,835.723145 312.395508,841.843506 312.970520,849.516663 
	C313.385712,855.057617 316.146973,859.942200 322.312866,861.817383 
	C326.223358,861.915771 330.133850,862.014099 334.762604,862.005371 
	C336.188354,861.376038 337.614136,860.746704 339.671356,859.863892 
	C341.153107,858.589417 342.634888,857.314941 344.758789,855.786926 
	C346.466888,856.204773 348.174988,856.622559 349.995667,857.774048 
	C352.330658,859.127136 354.665619,860.480225 357.760742,862.211609 
	C366.910583,864.859680 373.805481,860.965942 380.120270,854.825928 
	C381.067200,853.905151 383.264252,854.270081 385.108948,854.636475 
	C386.058197,855.462097 387.007416,856.287781 388.229553,857.774902 
	C395.853485,862.991211 404.082825,864.512634 413.721283,861.797974 
	C415.162292,861.236145 416.603302,860.674316 418.772797,860.004822 
	C420.710510,858.938599 422.812469,858.088440 424.553833,856.764099 
	C429.033783,853.356873 433.306641,849.700500 435.732239,843.810730 
	C436.099274,842.873901 436.466309,841.937134 436.991119,840.263733 
	C439.276001,835.471558 438.481659,831.795532 433.940613,829.593323 
	C429.947693,827.656921 427.258911,829.556213 424.832642,833.290588 
	C421.669891,838.158569 417.582214,842.425659 413.065125,846.996582 
	C410.376862,847.386597 407.688629,847.776611 404.258972,848.011902 
	C402.855103,847.638306 401.451233,847.264648 399.990265,846.084045 
	C399.937958,842.722595 399.885681,839.361145 400.152344,835.307678 
	C401.358124,832.471436 402.563873,829.635132 404.119293,825.976379 
	C404.945343,828.812439 405.415833,830.427795 406.149017,832.687012 
	C407.418549,833.829529 408.688080,834.971985 410.320923,836.821716 
	C418.291412,837.256042 422.947968,832.112061 422.987854,822.197876 
	C422.218353,818.071045 422.255920,813.479309 417.027496,811.962769 
	C417.027496,811.962769 417.087677,811.932800 416.997986,811.167053 
	C412.185913,806.781189 406.429810,808.146667 400.892426,808.708923 
	C399.520599,808.848267 398.264801,810.130615 396.254181,810.994446 
	C393.466461,814.313843 390.678741,817.633240 387.227661,821.255798 
	C386.873993,822.837341 386.520325,824.418823 385.901642,826.623169 
	C385.267883,827.470947 384.634125,828.318787 383.219543,829.012146 
	C379.160583,828.932495 376.602509,831.019775 374.866516,834.543274 
	C372.968719,838.395264 370.887085,842.156677 368.338531,846.127502 
	C367.877563,846.714172 367.416595,847.300903 366.173920,847.991699 
	C365.144470,847.906799 364.115051,847.821960 362.957764,847.726624 
	C363.401337,846.313965 363.757996,845.178162 364.822906,843.677368 
	C365.178467,841.903503 365.533997,840.129578 365.867920,838.333740 
	C365.867920,838.333740 365.882477,838.371521 366.376343,838.064453 
M551.841553,811.301453 
	C550.894165,810.589844 549.946777,809.878235 548.232605,809.011597 
	C547.105225,808.433960 545.977844,807.856384 544.404358,807.050232 
	C542.104492,809.163086 539.493713,811.561523 536.187744,814.307129 
	C534.736267,819.257996 533.284851,824.208862 532.143127,828.103271 
	C529.363770,828.453674 527.661926,828.668213 525.200684,828.991882 
	C524.041870,829.896118 522.690186,830.639282 521.768982,831.742065 
	C520.344055,833.447876 519.213257,835.399353 517.957764,837.246704 
	C517.850220,833.371460 518.510437,829.957214 518.993530,826.518127 
	C520.407043,816.455688 515.675720,809.817444 505.840332,808.009644 
	C503.780273,807.631042 502.536346,807.327942 503.668457,804.537720 
	C505.212158,800.733093 505.769806,796.537354 507.191406,792.671631 
	C508.637726,788.738708 506.378174,786.400146 503.879517,784.527344 
	C501.326447,782.613708 498.104980,781.626709 495.617279,784.892334 
	C493.273773,787.968750 490.617584,791.004211 489.138855,794.497803 
	C486.670380,800.329712 485.093933,806.534241 483.028381,812.542847 
	C479.505402,822.791016 475.387543,832.873718 472.601807,843.314697 
	C471.656769,846.856873 472.766937,852.220581 475.030426,855.116272 
	C483.105042,865.446350 498.006592,865.947205 507.187653,856.324097 
	C508.059814,855.409912 509.129913,854.325439 510.268646,854.087280 
	C515.074524,853.081909 519.941162,852.367188 524.966858,851.515503 
	C526.718567,854.433411 528.616211,857.594482 530.483459,860.704834 
	C523.433105,861.590820 518.531616,866.435242 515.363098,872.066101 
	C513.667786,875.078857 514.393616,880.335083 515.700623,883.978394 
	C518.705933,892.355713 525.691895,894.475403 534.121765,894.091187 
	C543.054565,893.684143 550.631653,888.277588 554.159607,880.060547 
	C556.238647,875.218201 556.080322,869.081787 562.758667,866.508179 
	C576.124390,861.357605 585.973328,852.358459 590.416687,838.198547 
	C591.721436,834.040588 589.147034,829.538635 584.881714,828.966858 
	C580.365295,828.361511 577.935059,830.775940 575.936096,834.333374 
	C573.798950,838.136658 571.495972,841.854004 569.092468,845.494690 
	C568.588623,846.257874 567.330933,846.523376 565.960571,847.268250 
	C569.515442,837.252441 572.924316,828.294434 575.772217,819.161621 
	C576.469055,816.926819 576.140564,813.527588 574.826233,811.728271 
	C573.251770,809.572815 569.313293,806.752014 567.817505,807.415955 
	C564.422363,808.922974 560.654480,811.861511 559.257080,815.158569 
	C555.534424,823.941467 552.950989,833.210510 549.985779,842.309448 
	C548.925293,845.563660 547.305542,847.949890 542.960938,847.735229 
	C546.435303,838.113892 549.817810,828.708008 553.232910,819.314026 
	C554.208130,816.631653 555.245239,813.988708 551.841553,811.301453 
M493.492035,148.005432 
	C494.800781,143.065445 496.109528,138.125458 497.406952,133.228149 
	C498.964539,133.228149 500.402008,133.228149 501.829132,133.228149 
	C503.360962,139.539932 504.738678,145.661636 506.337280,151.725082 
	C512.520081,175.175919 518.782104,198.605850 524.997620,222.048080 
	C530.225342,241.764679 535.552551,261.456024 540.603088,281.218048 
	C544.266602,295.553040 547.710266,309.949097 550.956787,324.384338 
	C554.106018,338.386902 557.138000,352.426514 559.728699,366.540344 
	C561.575195,376.599487 562.663208,386.800995 563.973816,396.953918 
	C564.559875,401.494385 565.142883,406.065918 565.234680,410.633240 
	C565.433167,420.514008 565.641846,430.415863 565.200562,440.280182 
	C564.939819,446.108734 563.445129,451.882111 562.506531,457.673096 
	C593.749512,457.673096 623.827820,457.673096 654.720947,457.673096 
	C653.763123,451.944733 652.071167,446.660889 652.153564,441.404877 
	C652.394104,426.063293 652.474548,410.631653 654.245972,395.424988 
	C656.226990,378.419830 659.668396,361.556946 663.065063,344.751556 
	C667.244995,324.070831 671.674133,303.425751 676.651794,282.924652 
	C683.096497,256.381073 690.187988,229.994537 697.003235,203.540970 
	C703.048401,180.076202 709.096680,156.612244 715.122803,133.228790 
	C716.921387,133.228790 718.353210,133.228790 719.742920,133.228790 
	C719.971375,134.572067 720.076416,135.709518 720.363281,136.799088 
	C725.229248,155.280228 730.162048,173.743881 734.989868,192.234924 
	C740.713440,214.157028 746.299316,236.115082 752.042847,258.031921 
	C756.277222,274.190002 760.949524,290.238434 764.907349,306.462402 
	C768.534058,321.328735 771.840454,336.295959 774.599060,351.345001 
	C777.492859,367.131409 779.606262,383.062195 781.978333,398.942169 
	C782.772217,404.257050 783.748901,409.600220 783.866638,414.947540 
	C784.044983,423.049652 783.836975,431.188263 783.238892,439.270355 
	C782.781860,445.447571 781.466736,451.561279 780.536865,457.679443 
	C817.429199,457.679443 853.179749,457.679443 888.919922,457.679443 
	C889.100769,449.764343 889.009949,449.830566 885.307617,444.752014 
	C883.035400,441.635162 880.830933,438.415222 879.045349,435.006165 
	C868.204346,414.307831 860.879333,392.172211 854.236145,369.936218 
	C846.653015,344.554291 840.389160,318.761719 834.093567,293.015228 
	C823.164185,248.318344 812.204529,203.619522 802.165527,158.718552 
	C797.649353,138.519257 795.285889,117.836456 792.023193,97.360703 
	C791.203552,92.216980 790.252686,87.035866 790.129272,81.853668 
	C789.960388,74.763390 790.278381,67.635735 790.849915,60.561443 
	C791.340332,54.491680 792.480347,48.474400 793.362427,42.225731 
	C762.134033,42.225731 731.715576,42.225731 700.912903,42.225731 
	C701.062195,44.902115 701.057678,47.356449 701.361267,49.772076 
	C702.169983,56.206646 703.490356,62.601894 703.876160,69.056480 
	C704.167908,73.937897 703.379456,78.890274 702.989502,83.804558 
	C702.354370,91.807739 702.104736,99.875557 700.880981,107.790657 
	C698.557983,122.815872 695.920166,137.804230 692.935425,152.712280 
	C689.361450,170.563477 685.655701,188.404419 681.342163,206.087616 
	C675.212036,231.218201 668.459595,256.196747 662.002808,281.247955 
	C654.910461,308.765259 647.851929,336.291290 640.787781,363.777863 
	C638.763000,363.777863 636.992676,363.777863 635.609680,363.777863 
	C632.356384,351.520844 629.082886,339.590820 626.028564,327.604980 
	C616.462463,290.065796 606.762512,252.558685 597.541687,214.934448 
	C591.639160,190.849899 585.905273,166.693634 581.203003,142.355591 
	C577.847534,124.987968 575.745300,107.316277 574.198792,89.682472 
	C573.140137,77.611832 573.903625,65.371765 574.059448,53.210098 
	C574.106079,49.563847 574.849548,45.926525 575.274109,42.282249 
	C543.987976,42.282249 513.568542,42.282249 483.025635,42.282249 
	C483.025635,44.717430 482.466980,47.058636 483.116974,48.993912 
	C487.095917,60.840881 486.615967,72.847069 485.014343,84.961052 
	C482.967346,100.443245 481.565918,116.034584 478.877991,131.402542 
	C475.070282,153.172699 470.949463,174.925079 465.879639,196.429794 
	C455.548309,240.252304 444.920349,284.015411 433.574738,327.584290 
	C426.870300,353.330536 419.009430,378.804504 410.795685,404.117676 
	C406.100311,418.588013 400.019989,432.747253 390.813965,445.053467 
	C387.677368,449.246368 386.145355,452.923737 387.392303,457.689331 
	C404.061981,457.689331 420.478180,457.689331 437.672211,457.689331 
	C436.397797,450.408112 434.222839,443.563416 434.208099,436.714020 
	C434.179016,423.213501 434.721680,409.641785 436.191895,396.227081 
	C437.760620,381.913605 440.412323,367.698425 443.069885,353.530151 
	C446.012573,337.841766 449.192749,322.183807 452.830780,306.644012 
	C456.528900,290.847473 460.948639,275.220734 464.985016,259.502350 
	C471.539764,233.976959 478.063568,208.443542 484.551605,182.901123 
	C487.441071,171.525803 490.211945,160.120361 493.492035,148.005432 
M261.554016,608.033691 
	C256.370453,600.351624 248.820648,595.685120 240.530518,592.281006 
	C230.769806,588.273132 220.561035,587.974426 210.255341,589.998596 
	C192.564865,593.473267 178.810959,602.742859 170.200851,618.619751 
	C163.351913,631.249084 161.592422,644.882263 163.908844,659.218079 
	C166.680435,676.370850 174.644623,689.906067 188.650574,700.379089 
	C203.975677,711.838501 221.660370,715.518433 239.940445,716.845886 
	C257.311462,718.107300 274.508087,715.707947 290.981781,709.903442 
	C309.744995,703.292114 326.164490,693.171326 339.120361,677.544495 
	C357.188446,655.751587 365.587952,630.264465 365.757568,602.735718 
	C366.372650,502.907745 365.973755,403.073730 366.043518,303.242065 
	C366.049988,293.989441 366.450958,284.723389 367.044800,275.487732 
	C368.224426,257.141571 369.359833,238.783005 371.105774,220.486084 
	C372.299774,207.973373 374.649963,195.618317 379.511780,183.849274 
	C381.102966,179.997421 381.726318,175.745743 382.915527,171.206512 
	C347.837341,171.206512 314.083862,171.206512 280.470337,171.206512 
	C278.282288,177.251663 282.390015,181.589981 283.977997,186.557541 
	C288.328705,200.167328 291.004578,214.106750 292.013550,228.369125 
	C293.311096,246.710541 295.766266,265.044434 295.821381,283.387299 
	C296.172363,400.217682 295.963165,517.049744 296.060059,633.881042 
	C296.069214,644.924194 294.157837,655.583069 290.902161,665.985413 
	C286.701019,679.408691 279.761993,691.183716 267.512421,698.897400 
	C257.718079,705.065125 247.169403,706.907959 235.473740,705.188110 
	C221.303635,703.104370 209.875336,697.132629 201.871506,685.338196 
	C193.122421,672.445496 192.257584,658.324280 195.840714,643.409546 
	C199.653732,627.537842 214.801376,613.615295 234.382019,616.849243 
	C251.009735,619.595520 263.069580,636.489502 259.860016,654.796326 
	C262.633453,653.738708 266.330109,653.357544 266.731781,652.000854 
	C268.640076,645.555298 270.940002,638.788696 270.658875,632.241211 
	C270.297119,623.816589 267.276642,615.617432 261.554016,608.033691 
M689.453552,861.070374 
	C691.629211,858.039612 694.605652,855.302307 695.841980,851.927429 
	C701.225159,837.233276 705.902710,822.280029 711.322449,807.600220 
	C712.479065,804.467529 714.600403,800.319458 720.783569,802.791687 
	C719.870300,806.027527 719.103394,809.411560 717.963623,812.664978 
	C713.647034,824.986267 709.427185,837.349182 704.727783,849.525452 
	C702.279663,855.868469 703.097168,860.101868 708.546753,862.825806 
	C711.505493,864.304565 717.873535,862.059265 719.883240,858.091064 
	C722.314514,853.290161 724.119629,848.153748 725.964844,843.078613 
	C729.076294,834.520752 731.778564,825.807556 735.100159,817.335083 
	C737.005737,812.474365 739.555664,807.808838 742.353760,803.396851 
	C743.032532,802.326538 745.836487,802.604065 747.663269,802.261780 
	C747.617981,803.823547 747.946533,805.511536 747.468750,806.927368 
	C743.383362,819.033630 739.295349,831.143005 734.908569,843.141968 
	C732.400269,850.002808 735.010254,855.374451 739.988586,859.213257 
	C745.114319,863.165771 751.360352,864.388062 757.928040,862.060730 
	C768.782471,858.214233 773.968567,849.267944 777.672791,839.459778 
	C780.069031,833.115051 775.517151,827.403809 769.213501,829.238770 
	C766.763733,829.951904 764.654053,832.950378 763.095886,835.363892 
	C760.340454,839.632019 760.009766,845.826233 753.023315,847.277588 
	C753.023315,845.499512 752.656799,844.062866 753.079773,842.917847 
	C757.547913,830.822327 762.391541,818.858337 766.547424,806.659119 
	C767.776001,803.052795 768.554443,798.213440 767.148682,794.977783 
	C761.350464,781.632629 750.849915,780.664062 739.404114,786.193665 
	C736.841675,787.431580 735.229797,788.801941 732.629700,785.609131 
	C731.133362,783.771729 727.325562,783.104492 724.578125,783.148682 
	C719.129395,783.236206 713.709106,786.336548 708.225586,783.047485 
	C707.791687,782.787231 706.942261,783.122681 706.316772,783.294006 
	C701.338196,784.657227 698.800598,787.741272 697.358093,792.937073 
	C694.807495,802.124023 691.201538,811.021301 687.963318,820.013062 
	C685.200623,827.684326 682.271484,835.295898 679.539978,842.977905 
	C678.213806,846.707397 676.510254,850.474792 676.143555,854.335754 
	C675.471069,861.417725 682.404175,865.185181 689.453552,861.070374 
M627.966003,857.648132 
	C636.047424,866.216125 648.156860,865.818481 656.843811,859.154175 
	C663.313171,854.191162 666.050232,847.566833 668.471924,840.197510 
	C673.753296,824.126038 679.501526,808.202209 685.372253,792.333923 
	C687.070618,787.743225 684.554993,786.269897 681.296082,786.128784 
	C672.815735,785.761719 664.301270,785.789856 655.816101,786.095215 
	C651.616577,786.246399 648.862610,789.029907 648.045166,793.189514 
	C647.266663,797.151245 648.729004,800.647766 652.630981,801.690247 
	C655.732971,802.519043 659.233215,801.857239 662.704102,801.857239 
	C661.355713,805.942139 660.095642,809.729370 658.855408,813.523132 
	C656.227966,821.560242 653.348511,829.527527 651.075684,837.664001 
	C649.378540,843.739807 646.326721,847.055054 641.403564,846.701904 
	C640.778381,841.694885 638.013794,838.666382 632.710022,838.345276 
	C628.926270,838.116150 625.737427,840.203308 624.635925,843.947510 
	C623.245911,848.672668 623.961609,853.239441 627.966003,857.648132 
M366.509796,801.007324 
	C371.020691,805.440918 377.049866,804.951538 380.667480,799.857971 
	C382.877991,796.745728 382.795502,790.853394 379.479370,788.326477 
	C377.042633,786.469666 372.954407,784.772827 370.349457,785.540527 
	C363.902161,787.440674 362.344177,794.152283 366.509796,801.007324 
z"/>
<path fill="#FFFFFF" opacity="1.000000" stroke="none" 
	d="
M493.264313,148.367004 
	C490.211945,160.120361 487.441071,171.525803 484.551605,182.901123 
	C478.063568,208.443542 471.539764,233.976959 464.985016,259.502350 
	C460.948639,275.220734 456.528900,290.847473 452.830780,306.644012 
	C449.192749,322.183807 446.012573,337.841766 443.069885,353.530151 
	C440.412323,367.698425 437.760620,381.913605 436.191895,396.227081 
	C434.721680,409.641785 434.179016,423.213501 434.208099,436.714020 
	C434.222839,443.563416 436.397797,450.408112 437.672211,457.689331 
	C420.478180,457.689331 404.061981,457.689331 387.392303,457.689331 
	C386.145355,452.923737 387.677368,449.246368 390.813965,445.053467 
	C400.019989,432.747253 406.100311,418.588013 410.795685,404.117676 
	C419.009430,378.804504 426.870300,353.330536 433.574738,327.584290 
	C444.920349,284.015411 455.548309,240.252304 465.879639,196.429794 
	C470.949463,174.925079 475.070282,153.172699 478.877991,131.402542 
	C481.565918,116.034584 482.967346,100.443245 485.014343,84.961052 
	C486.615967,72.847069 487.095917,60.840881 483.116974,48.993912 
	C482.466980,47.058636 483.025635,44.717430 483.025635,42.282249 
	C513.568542,42.282249 543.987976,42.282249 575.274109,42.282249 
	C574.849548,45.926525 574.106079,49.563847 574.059448,53.210098 
	C573.903625,65.371765 573.140137,77.611832 574.198792,89.682472 
	C575.745300,107.316277 577.847534,124.987968 581.203003,142.355591 
	C585.905273,166.693634 591.639160,190.849899 597.541687,214.934448 
	C606.762512,252.558685 616.462463,290.065796 626.028564,327.604980 
	C629.082886,339.590820 632.356384,351.520844 635.609680,363.777863 
	C636.992676,363.777863 638.763000,363.777863 640.787781,363.777863 
	C647.851929,336.291290 654.910461,308.765259 662.002808,281.247955 
	C668.459595,256.196747 675.212036,231.218201 681.342163,206.087616 
	C685.655701,188.404419 689.361450,170.563477 692.935425,152.712280 
	C695.920166,137.804230 698.557983,122.815872 700.880981,107.790657 
	C702.104736,99.875557 702.354370,91.807739 702.989502,83.804558 
	C703.379456,78.890274 704.167908,73.937897 703.876160,69.056480 
	C703.490356,62.601894 702.169983,56.206646 701.361267,49.772076 
	C701.057678,47.356449 701.062195,44.902115 700.912903,42.225731 
	C731.715576,42.225731 762.134033,42.225731 793.362427,42.225731 
	C792.480347,48.474400 791.340332,54.491680 790.849915,60.561443 
	C790.278381,67.635735 789.960388,74.763390 790.129272,81.853668 
	C790.252686,87.035866 791.203552,92.216980 792.023193,97.360703 
	C795.285889,117.836456 797.649353,138.519257 802.165527,158.718552 
	C812.204529,203.619522 823.164185,248.318344 834.093567,293.015228 
	C840.389160,318.761719 846.653015,344.554291 854.236145,369.936218 
	C860.879333,392.172211 868.204346,414.307831 879.045349,435.006165 
	C880.830933,438.415222 883.035400,441.635162 885.307617,444.752014 
	C889.009949,449.830566 889.100769,449.764343 888.919922,457.679443 
	C853.179749,457.679443 817.429199,457.679443 780.536865,457.679443 
	C781.466736,451.561279 782.781860,445.447571 783.238892,439.270355 
	C783.836975,431.188263 784.044983,423.049652 783.866638,414.947540 
	C783.748901,409.600220 782.772217,404.257050 781.978333,398.942169 
	C779.606262,383.062195 777.492859,367.131409 774.599060,351.345001 
	C771.840454,336.295959 768.534058,321.328735 764.907349,306.462402 
	C760.949524,290.238434 756.277222,274.190002 752.042847,258.031921 
	C746.299316,236.115082 740.713440,214.157028 734.989868,192.234924 
	C730.162048,173.743881 725.229248,155.280228 720.363281,136.799088 
	C720.076416,135.709518 719.971375,134.572067 719.742920,133.228790 
	C718.353210,133.228790 716.921387,133.228790 715.122803,133.228790 
	C709.096680,156.612244 703.048401,180.076202 697.003235,203.540970 
	C690.187988,229.994537 683.096497,256.381073 676.651794,282.924652 
	C671.674133,303.425751 667.244995,324.070831 663.065063,344.751556 
	C659.668396,361.556946 656.226990,378.419830 654.245972,395.424988 
	C652.474548,410.631653 652.394104,426.063293 652.153564,441.404877 
	C652.071167,446.660889 653.763123,451.944733 654.720947,457.673096 
	C623.827820,457.673096 593.749512,457.673096 562.506531,457.673096 
	C563.445129,451.882111 564.939819,446.108734 565.200562,440.280182 
	C565.641846,430.415863 565.433167,420.514008 565.234680,410.633240 
	C565.142883,406.065918 564.559875,401.494385 563.973816,396.953918 
	C562.663208,386.800995 561.575195,376.599487 559.728699,366.540344 
	C557.138000,352.426514 554.106018,338.386902 550.956787,324.384338 
	C547.710266,309.949097 544.266602,295.553040 540.603088,281.218048 
	C535.552551,261.456024 530.225342,241.764679 524.997620,222.048080 
	C518.782104,198.605850 512.520081,175.175919 506.337280,151.725082 
	C504.738678,145.661636 503.360962,139.539932 501.829132,133.228149 
	C500.402008,133.228149 498.964539,133.228149 497.406952,133.228149 
	C496.109528,138.125458 494.800781,143.065445 493.264313,148.367004 
z"/>
<path fill="#FFFFFF" opacity="1.000000" stroke="none" 
	d="
M261.804230,608.309265 
	C267.276642,615.617432 270.297119,623.816589 270.658875,632.241211 
	C270.940002,638.788696 268.640076,645.555298 266.731781,652.000854 
	C266.330109,653.357544 262.633453,653.738708 259.860016,654.796326 
	C263.069580,636.489502 251.009735,619.595520 234.382019,616.849243 
	C214.801376,613.615295 199.653732,627.537842 195.840714,643.409546 
	C192.257584,658.324280 193.122421,672.445496 201.871506,685.338196 
	C209.875336,697.132629 221.303635,703.104370 235.473740,705.188110 
	C247.169403,706.907959 257.718079,705.065125 267.512421,698.897400 
	C279.761993,691.183716 286.701019,679.408691 290.902161,665.985413 
	C294.157837,655.583069 296.069214,644.924194 296.060059,633.881042 
	C295.963165,517.049744 296.172363,400.217682 295.821381,283.387299 
	C295.766266,265.044434 293.311096,246.710541 292.013550,228.369125 
	C291.004578,214.106750 288.328705,200.167328 283.977997,186.557541 
	C282.390015,181.589981 278.282288,177.251663 280.470337,171.206512 
	C314.083862,171.206512 347.837341,171.206512 382.915527,171.206512 
	C381.726318,175.745743 381.102966,179.997421 379.511780,183.849274 
	C374.649963,195.618317 372.299774,207.973373 371.105774,220.486084 
	C369.359833,238.783005 368.224426,257.141571 367.044800,275.487732 
	C366.450958,284.723389 366.049988,293.989441 366.043518,303.242065 
	C365.973755,403.073730 366.372650,502.907745 365.757568,602.735718 
	C365.587952,630.264465 357.188446,655.751587 339.120361,677.544495 
	C326.164490,693.171326 309.744995,703.292114 290.981781,709.903442 
	C274.508087,715.707947 257.311462,718.107300 239.940445,716.845886 
	C221.660370,715.518433 203.975677,711.838501 188.650574,700.379089 
	C174.644623,689.906067 166.680435,676.370850 163.908844,659.218079 
	C161.592422,644.882263 163.351913,631.249084 170.200851,618.619751 
	C178.810959,602.742859 192.564865,593.473267 210.255341,589.998596 
	C220.561035,587.974426 230.769806,588.273132 240.530518,592.281006 
	C248.820648,595.685120 256.370453,600.351624 261.804230,608.309265 
z"/>
<path fill="#FFFFFF" opacity="1.000000" stroke="none" 
	d="
M536.882935,813.959961 
	C539.493713,811.561523 542.104492,809.163086 544.404358,807.050232 
	C545.977844,807.856384 547.105225,808.433960 548.542114,809.438599 
	C548.273010,811.729309 547.694336,813.592896 547.115662,815.456543 
	C547.689148,815.642273 548.262634,815.828003 548.836121,816.013733 
	C549.927856,814.660767 551.019653,813.307800 552.111450,811.954834 
	C555.245239,813.988708 554.208130,816.631653 553.232910,819.314026 
	C549.817810,828.708008 546.435303,838.113892 542.960938,847.735229 
	C547.305542,847.949890 548.925293,845.563660 549.985779,842.309448 
	C552.950989,833.210510 555.534424,823.941467 559.257080,815.158569 
	C560.654480,811.861511 564.422363,808.922974 567.817505,807.415955 
	C569.313293,806.752014 573.251770,809.572815 574.826233,811.728271 
	C576.140564,813.527588 576.469055,816.926819 575.772217,819.161621 
	C572.924316,828.294434 569.515442,837.252441 565.960571,847.268250 
	C567.330933,846.523376 568.588623,846.257874 569.092468,845.494690 
	C571.495972,841.854004 573.798950,838.136658 575.936096,834.333374 
	C577.935059,830.775940 580.365295,828.361511 584.881714,828.966858 
	C589.147034,829.538635 591.721436,834.040588 590.416687,838.198547 
	C585.973328,852.358459 576.124390,861.357605 562.758667,866.508179 
	C556.080322,869.081787 556.238647,875.218201 554.159607,880.060547 
	C550.631653,888.277588 543.054565,893.684143 534.121765,894.091187 
	C525.691895,894.475403 518.705933,892.355713 515.700623,883.978394 
	C514.393616,880.335083 513.667786,875.078857 515.363098,872.066101 
	C518.531616,866.435242 523.433105,861.590820 530.483459,860.704834 
	C528.616211,857.594482 526.718567,854.433411 524.966858,851.515503 
	C519.941162,852.367188 515.074524,853.081909 510.268646,854.087280 
	C509.129913,854.325439 508.059814,855.409912 507.187653,856.324097 
	C498.006592,865.947205 483.105042,865.446350 475.030426,855.116272 
	C472.766937,852.220581 471.656769,846.856873 472.601807,843.314697 
	C475.387543,832.873718 479.505402,822.791016 483.028381,812.542847 
	C485.093933,806.534241 486.670380,800.329712 489.138855,794.497803 
	C490.617584,791.004211 493.273773,787.968750 495.617279,784.892334 
	C498.104980,781.626709 501.326447,782.613708 503.879517,784.527344 
	C506.378174,786.400146 508.637726,788.738708 507.191406,792.671631 
	C505.769806,796.537354 505.212158,800.733093 503.668457,804.537720 
	C502.536346,807.327942 503.780273,807.631042 505.840332,808.009644 
	C515.675720,809.817444 520.407043,816.455688 518.993530,826.518127 
	C518.510437,829.957214 517.850220,833.371460 517.957764,837.246704 
	C519.213257,835.399353 520.344055,833.447876 521.768982,831.742065 
	C522.690186,830.639282 524.041870,829.896118 525.599548,829.325195 
	C528.041443,831.208374 530.325439,832.529358 532.067932,834.364624 
	C534.377869,836.797485 535.854553,836.134827 536.663818,833.451599 
	C538.548279,827.204163 540.187073,820.882141 541.862976,814.573792 
	C541.953369,814.233215 541.471985,813.740723 541.156860,813.123169 
	C539.715942,813.405273 538.299438,813.682556 536.882935,813.959961 
M495.027527,827.739746 
	C494.701202,829.089722 494.374878,830.439697 493.938812,832.243530 
	C496.973785,830.624390 499.265320,829.401917 501.844116,828.026123 
	C501.844116,826.426880 501.844116,824.330017 501.844116,822.233215 
	C501.493195,821.945557 501.142242,821.657837 500.791321,821.370178 
	C498.997955,823.270020 497.204559,825.169922 495.027527,827.739746 
M492.196381,842.028442 
	C488.074249,843.547852 488.314392,846.013977 490.563019,849.330688 
	C492.166534,848.399841 493.503845,847.623474 494.815674,846.861938 
	C494.107849,845.227478 493.497528,843.818176 492.196381,842.028442 
M536.799011,872.832764 
	C535.423462,872.191345 534.047913,871.549927 532.672363,870.908508 
	C532.425171,872.181274 531.522888,873.968140 532.046814,874.635742 
	C534.059326,877.199951 535.605591,875.540527 536.799011,872.832764 
z"/>
<path fill="#FFFFFF" opacity="1.000000" stroke="none" 
	d="
M689.176880,861.359741 
	C682.404175,865.185181 675.471069,861.417725 676.143555,854.335754 
	C676.510254,850.474792 678.213806,846.707397 679.539978,842.977905 
	C682.271484,835.295898 685.200623,827.684326 687.963318,820.013062 
	C691.201538,811.021301 694.807495,802.124023 697.358093,792.937073 
	C698.800598,787.741272 701.338196,784.657227 706.316772,783.294006 
	C706.942261,783.122681 707.791687,782.787231 708.225586,783.047485 
	C713.709106,786.336548 719.129395,783.236206 724.578125,783.148682 
	C727.325562,783.104492 731.133362,783.771729 732.629700,785.609131 
	C735.229797,788.801941 736.841675,787.431580 739.404114,786.193665 
	C750.849915,780.664062 761.350464,781.632629 767.148682,794.977783 
	C768.554443,798.213440 767.776001,803.052795 766.547424,806.659119 
	C762.391541,818.858337 757.547913,830.822327 753.079773,842.917847 
	C752.656799,844.062866 753.023315,845.499512 753.023315,847.277588 
	C760.009766,845.826233 760.340454,839.632019 763.095886,835.363892 
	C764.654053,832.950378 766.763733,829.951904 769.213501,829.238770 
	C775.517151,827.403809 780.069031,833.115051 777.672791,839.459778 
	C773.968567,849.267944 768.782471,858.214233 757.928040,862.060730 
	C751.360352,864.388062 745.114319,863.165771 739.988586,859.213257 
	C735.010254,855.374451 732.400269,850.002808 734.908569,843.141968 
	C739.295349,831.143005 743.383362,819.033630 747.468750,806.927368 
	C747.946533,805.511536 747.617981,803.823547 747.663208,802.261780 
	C745.836487,802.604065 743.032532,802.326538 742.353760,803.396851 
	C739.555664,807.808838 737.005737,812.474365 735.100159,817.335083 
	C731.778564,825.807556 729.076294,834.520752 725.964844,843.078613 
	C724.119629,848.153748 722.314514,853.290161 719.883240,858.091064 
	C717.873535,862.059265 711.505493,864.304565 708.546753,862.825806 
	C703.097168,860.101868 702.279663,855.868469 704.727783,849.525452 
	C709.427185,837.349182 713.647034,824.986267 717.963623,812.664978 
	C719.103394,809.411560 719.870300,806.027527 720.783569,802.791687 
	C714.600403,800.319458 712.479065,804.467529 711.322449,807.600220 
	C705.902710,822.280029 701.225159,837.233276 695.841980,851.927429 
	C694.605652,855.302307 691.629211,858.039612 689.176880,861.359741 
z"/>
<path fill="#FFFFFF" opacity="1.000000" stroke="none" 
	d="
M329.833344,846.000305 
	C331.117157,850.735779 332.806305,845.763062 334.619202,846.410645 
	C333.937897,847.887329 332.907593,849.138855 331.965790,850.282837 
	C337.751862,851.935181 339.909943,851.183289 341.130341,846.015076 
	C341.375580,844.976562 339.033142,843.326965 337.883759,841.959106 
	C338.660950,839.396606 339.438141,836.834106 340.878540,834.337830 
	C344.643707,834.935974 347.730377,835.597046 350.851685,835.964722 
	C354.206604,836.359802 356.337891,835.237732 357.203461,831.452576 
	C357.982117,828.047546 359.738678,824.851746 361.183105,821.616943 
	C363.058105,817.417908 361.929993,814.903015 357.166656,812.999695 
	C358.131714,811.898621 358.968079,810.640381 360.085419,809.725342 
	C363.771881,806.706055 369.965759,805.662659 372.700195,813.570374 
	C370.597443,813.946777 368.798737,813.973389 366.993011,813.609680 
	C365.854950,812.183838 364.723907,811.148315 363.592834,810.112854 
	C363.101776,810.824951 362.610748,811.537048 362.119690,812.249268 
	C363.422211,812.832642 364.716187,813.436523 366.034119,813.982727 
	C366.310913,814.097473 366.675720,813.999817 367.000000,814.410156 
	C366.748352,816.264893 366.743896,817.810852 366.200562,819.135803 
	C364.281311,823.816162 364.716431,824.554749 370.118896,825.038635 
	C369.342834,827.933472 368.566772,830.828247 367.069092,833.833740 
	C365.876038,833.788391 365.336304,833.401550 364.945251,833.517212 
	C363.442657,833.961975 361.987640,834.567627 360.514893,835.113281 
	C361.649384,836.098511 362.726288,837.165100 363.946960,838.028503 
	C364.429932,838.370178 365.232483,838.260132 365.889526,838.355713 
	C365.533997,840.129578 365.178467,841.903503 364.108398,843.796814 
	C361.811066,843.433838 360.164886,842.478821 358.673615,842.678833 
	C357.983002,842.771484 356.824707,845.975342 357.189941,846.302002 
	C360.220093,849.011780 363.552826,851.384399 366.873505,853.747314 
	C366.900421,853.766541 368.567871,852.204407 368.505981,851.460815 
	C368.403992,850.235229 367.513672,849.075256 366.955627,847.887634 
	C367.416595,847.300903 367.877563,846.714172 368.996185,846.054565 
	C370.769226,846.654419 371.884613,847.327209 372.630554,848.007935 
	C371.589722,848.630493 370.918335,849.245117 370.246948,849.859741 
	C371.164642,850.239807 372.082306,850.619934 372.944275,851.349060 
	C370.994202,856.434937 366.400513,856.873535 362.721069,856.446167 
	C357.761078,855.870056 357.003143,858.021912 357.000580,861.833374 
	C354.665619,860.480225 352.330658,859.127136 350.347931,857.394653 
	C353.264618,857.148987 354.500122,856.188904 353.682526,853.461731 
	C353.209961,851.885376 352.963165,850.220459 352.318634,848.722778 
	C351.773529,847.456116 350.802399,846.372742 350.019836,845.208252 
	C348.982483,846.031982 347.957764,846.872253 346.904236,847.674744 
	C345.894104,848.444214 344.786285,849.098816 343.845337,849.942139 
	C342.842163,850.841370 341.097565,852.100281 341.264282,852.848267 
	C341.535248,854.063843 343.098755,854.991394 344.116699,856.040527 
	C342.634888,857.314941 341.153107,858.589417 339.343842,859.583740 
	C338.381683,857.939392 338.077850,856.030151 337.008942,855.381409 
	C336.135498,854.851257 333.166016,855.807617 333.161041,856.135925 
	C333.130829,858.123169 333.685272,860.119263 334.044342,862.112427 
	C330.133850,862.014099 326.223358,861.915771 322.283691,861.109619 
	C324.277405,856.210999 321.595459,853.733887 319.121887,850.935852 
	C318.002319,849.669312 316.911346,847.323547 317.334473,845.931458 
	C319.079742,840.189209 321.410187,834.624878 323.778687,828.321533 
	C321.887482,828.213074 320.027069,828.106384 318.166687,827.999634 
	C318.865479,826.184692 319.564270,824.369751 320.263031,822.554810 
	C319.965363,822.311707 319.667664,822.068604 319.369995,821.825500 
	C318.484100,822.485107 317.598175,823.144714 316.362610,823.455688 
	C315.964874,821.297729 318.193817,818.514343 314.496613,818.252808 
	C313.251526,818.164673 311.005524,819.799805 310.708069,821.013000 
	C309.718933,825.046936 313.229065,823.561279 315.114685,824.042236 
	C314.057861,826.838135 313.001038,829.633972 311.553101,832.216064 
	C310.974701,830.447876 310.787354,828.893494 310.600006,827.339111 
	C310.071777,827.117981 309.543549,826.896912 309.015350,826.675781 
	C307.740631,828.754333 306.465942,830.832947 305.191223,832.911560 
	C306.833191,833.621094 308.475159,834.330627 310.117126,835.040100 
	C308.408630,840.110413 306.700134,845.180786 304.600861,850.568726 
	C303.824402,849.670349 303.438721,848.454468 302.981598,847.013428 
	C298.348145,848.130188 297.995209,852.185669 297.419708,855.701965 
	C297.344666,856.160461 300.938751,857.219482 302.833313,858.000366 
	C300.143158,859.662842 297.452972,861.325256 294.381409,862.514038 
	C293.571198,855.404541 292.584015,854.572266 286.885651,856.042603 
	C286.885651,856.042603 286.430511,855.990845 286.215271,855.509399 
	C286.000000,853.685364 286.000000,852.342651 286.410156,851.000000 
	C287.797821,850.959412 289.136963,851.307007 289.680542,850.800598 
	C290.979065,849.591003 292.057922,848.059265 292.877106,846.477173 
	C293.105042,846.036926 291.808258,844.256348 291.730804,844.289917 
	C290.049957,845.018494 288.130676,845.620300 286.928711,846.884766 
	C286.096741,847.759888 286.273834,849.594238 285.663269,850.854004 
	C282.240936,849.085327 280.071533,850.378662 279.607361,853.370361 
	C279.449615,854.387024 281.874237,855.804382 283.118835,857.038574 
	C280.662842,858.354919 278.206848,859.671265 275.375427,860.556335 
	C275.000000,859.416687 275.000000,858.708374 275.369904,857.991882 
	C276.403290,857.339417 277.066772,856.695068 277.730225,856.050720 
	C277.229645,855.776611 276.729004,855.502502 276.228363,855.228394 
	C275.818909,856.152283 275.409454,857.076111 274.544525,858.000000 
	C270.966431,857.794006 267.846344,857.523071 264.720428,857.402954 
	C262.292328,857.309631 259.857025,857.404480 257.424927,857.415710 
	C258.616425,859.221619 259.807953,861.027466 260.999451,862.833374 
	C254.343384,862.216431 247.973495,860.884644 243.408936,855.353027 
	C244.951675,854.070740 246.236038,853.123779 247.520416,852.176880 
	C246.164078,850.818115 244.771530,848.284912 243.458344,848.325378 
	C239.822815,848.437500 242.062973,851.344177 241.968903,853.141479 
	C241.951935,853.465698 241.961746,853.791321 241.959198,854.116333 
	C239.976913,850.996094 237.994614,847.875793 236.455017,844.428162 
	C238.589066,844.169556 240.285782,844.312988 241.963409,844.191895 
	C242.131531,844.179749 242.521210,841.953674 242.232849,841.794067 
	C240.806122,841.004211 239.197037,840.529480 237.626953,840.021851 
	C237.184067,839.878662 236.655746,839.999756 236.166611,839.999695 
	C236.460922,837.553833 236.755219,835.108032 237.488480,832.747803 
	C239.641357,836.146057 241.924835,834.567322 242.640991,832.642334 
	C244.667053,827.196594 246.050171,821.511475 247.668320,815.915344 
	C247.697922,815.812927 247.501144,815.645081 247.181015,815.162781 
	C245.943069,815.421082 244.554871,815.710693 243.166656,816.000366 
	C244.515015,811.758423 245.863388,807.516541 247.814865,803.307922 
	C248.417984,804.761780 248.417984,806.182251 248.417984,807.602783 
	C248.950684,807.774841 249.483368,807.946899 250.016068,808.119019 
	C252.043839,804.505554 253.855209,800.745178 256.174042,797.329285 
	C257.768433,794.980591 259.845612,791.649597 262.093567,791.308960 
	C267.986969,790.416016 273.996582,785.849731 281.102539,792.107544 
	C280.573853,788.777954 280.287140,786.972290 280.000427,785.166626 
	C281.946106,786.543457 283.891846,787.920227 285.609497,789.674683 
	C284.736969,791.247375 284.092529,792.442444 283.448090,793.637451 
	C285.336975,793.744202 287.225830,793.850952 289.114716,793.957642 
	C289.405762,794.742920 289.696808,795.528076 289.567352,796.702271 
	C284.940948,800.270447 285.116577,802.294006 289.833313,805.000366 
	C289.128265,807.267395 288.423248,809.534363 287.240295,811.621460 
	C285.191406,804.795288 282.100677,810.372681 278.735046,810.909485 
	C277.778320,807.408447 277.344910,803.697205 275.722595,800.610779 
	C274.584595,798.445740 271.584778,795.532104 269.843628,795.794006 
	C266.820801,796.248535 263.319214,798.336731 261.579041,800.829468 
	C260.396667,802.523132 261.263947,806.442383 265.117035,807.040161 
	C264.669281,808.607788 264.221558,810.175415 263.034119,811.880920 
	C259.061066,811.531799 256.807404,812.829102 255.535187,815.806152 
	C254.260757,818.788391 252.940506,821.758240 251.851410,824.808838 
	C251.459000,825.908081 251.680038,827.226257 251.621124,828.444519 
	C252.877899,828.483887 254.174698,828.728699 255.378082,828.494080 
	C256.260071,828.322266 257.019379,827.521118 257.833374,827.000427 
	C256.816162,830.244812 255.798950,833.489258 254.133652,836.678284 
	C251.918747,836.216675 250.351929,835.810425 248.785110,835.404175 
	C248.545380,836.629578 247.710373,838.272400 248.207382,838.981262 
	C248.927277,840.007996 250.579163,840.438293 251.897598,840.961487 
	C252.459488,841.184509 253.183212,840.999756 253.833389,841.000366 
	C255.087997,843.168457 256.342621,845.336487 257.711975,847.702881 
	C261.600494,847.487427 265.889618,847.249817 270.543030,847.442139 
	C271.280457,849.475952 271.653564,851.079895 272.026672,852.683838 
	C274.281158,851.495544 276.535583,850.307251 278.790039,849.118896 
	C277.488617,848.065002 276.187225,847.011108 274.885803,845.957275 
	C276.322754,844.637695 277.759705,843.318115 279.594299,842.333740 
	C280.802429,843.745850 281.512634,845.568787 282.450928,845.694824 
	C283.433685,845.826904 284.857330,844.512939 285.690948,843.502991 
	C287.050903,841.855591 288.395721,840.067078 289.191223,838.112000 
	C290.434753,835.055603 292.428467,833.976501 295.656403,833.919922 
	C299.533264,833.851868 300.558411,831.372559 298.752777,827.157898 
	C297.463226,827.757935 296.174500,828.357544 294.885803,828.957275 
	C295.881348,826.858765 296.876862,824.760254 298.361877,822.372742 
	C302.554352,823.281189 304.402039,821.689453 305.017548,818.075684 
	C305.264160,816.627686 305.598724,815.168091 306.115143,813.797424 
	C307.847687,809.198975 309.718079,804.652588 311.461884,800.058289 
	C312.743317,796.682190 311.534454,794.933533 307.882874,794.959839 
	C308.607025,792.491089 309.331177,790.022339 310.525452,787.732971 
	C312.857239,788.612427 314.778076,789.190674 316.559143,790.056519 
	C317.701813,790.612061 319.604279,791.757812 319.501831,792.351990 
	C319.037079,795.047180 317.894867,797.616638 317.160858,800.276672 
	C316.393768,803.056458 315.814667,805.888245 315.153381,808.697327 
	C315.408234,808.770203 315.663116,808.843079 315.917969,808.915955 
	C315.494202,810.582520 315.070404,812.249146 314.646606,813.915649 
	C316.018646,814.210754 317.390686,814.505859 318.762695,814.801025 
	C318.888580,813.249084 318.814087,811.642456 319.217621,810.166321 
	C319.448822,809.320435 320.456512,808.686829 321.114624,807.957642 
	C321.874359,808.276489 322.634094,808.595337 323.698151,809.413940 
	C326.761841,813.319763 329.521210,816.725830 332.404724,820.285156 
	C329.967896,825.604980 330.428070,826.542542 336.117249,827.040100 
	C335.342590,829.933044 334.567963,832.825928 333.161377,835.652832 
	C331.914032,833.773804 331.298615,831.960876 330.429688,829.401306 
	C329.358032,830.834534 328.808533,831.288147 328.624115,831.859680 
	C326.780731,837.572510 324.905060,843.279541 323.318146,849.064819 
	C323.127197,849.760986 324.592651,850.911438 325.290405,851.851318 
	C326.138580,850.888123 327.853546,849.703613 327.674591,849.002625 
	C327.107025,846.779602 327.461395,845.836304 329.833344,846.000305 
M304.610870,836.060242 
	C303.812775,837.057556 303.014679,838.054871 302.216583,839.052185 
	C303.064056,839.680542 303.951355,840.858765 304.749207,840.801086 
	C305.797333,840.725220 306.775055,839.676025 307.783051,839.045471 
	C306.982758,838.050049 306.182495,837.054565 304.610870,836.060242 
M249.296738,810.430786 
	C249.010635,810.703918 248.724548,810.977051 248.438416,811.250183 
	C248.551697,811.368591 248.757248,811.596191 248.764999,811.589722 
	C249.066727,811.334778 249.350449,811.058533 249.296738,810.430786 
z"/>
<path fill="#FFFFFF" opacity="1.000000" stroke="none" 
	d="
M627.745239,857.335205 
	C623.961609,853.239441 623.245911,848.672668 624.635925,843.947510 
	C625.737427,840.203308 628.926270,838.116150 632.710022,838.345276 
	C638.013794,838.666382 640.778381,841.694885 641.403564,846.701904 
	C646.326721,847.055054 649.378540,843.739807 651.075684,837.664001 
	C653.348511,829.527527 656.227966,821.560242 658.855408,813.523132 
	C660.095642,809.729370 661.355713,805.942139 662.704102,801.857239 
	C659.233215,801.857239 655.732971,802.519043 652.630981,801.690247 
	C648.729004,800.647766 647.266663,797.151245 648.045166,793.189514 
	C648.862610,789.029907 651.616577,786.246399 655.816101,786.095215 
	C664.301270,785.789856 672.815735,785.761719 681.296082,786.128784 
	C684.554993,786.269897 687.070618,787.743225 685.372253,792.333923 
	C679.501526,808.202209 673.753296,824.126038 668.471924,840.197510 
	C666.050232,847.566833 663.313171,854.191162 656.843811,859.154175 
	C648.156860,865.818481 636.047424,866.216125 627.745239,857.335205 
z"/>
<path fill="#FFFFFF" opacity="1.000000" stroke="none" 
	d="
M373.000000,848.000000 
	C371.884613,847.327209 370.769226,846.654419 369.269714,845.969604 
	C370.887085,842.156677 372.968719,838.395264 374.866516,834.543274 
	C376.602509,831.019775 379.160583,828.932495 383.555237,829.467651 
	C383.356812,832.094116 381.364319,835.586853 385.018463,835.501526 
	C387.010559,835.454956 388.903809,831.176880 390.841675,828.807251 
	C389.283325,827.871582 387.725006,826.935974 386.166626,826.000366 
	C386.520325,824.418823 386.873993,822.837341 387.879608,821.255737 
	C390.300232,822.844849 392.728638,824.064575 393.840424,821.385681 
	C395.218353,818.065430 401.977844,816.088379 396.955688,810.887512 
	C398.264801,810.130615 399.520599,808.848267 400.892426,808.708923 
	C406.429810,808.146667 412.185913,806.781189 416.621643,811.569214 
	C411.382385,812.338135 405.804474,818.184753 405.187897,823.561462 
	C400.132568,822.677612 397.496338,824.189697 397.071777,827.817688 
	C396.853333,829.684265 395.958984,831.497314 395.209656,833.266602 
	C394.766083,834.313904 393.716370,835.159851 393.466980,836.220459 
	C393.143402,837.596497 393.345032,839.096008 393.320618,840.542419 
	C394.603363,839.902527 395.971222,839.387085 397.143066,838.585205 
	C398.155518,837.892395 398.945190,836.874023 399.833374,835.999695 
	C399.885681,839.361145 399.937958,842.722595 399.871765,846.802124 
	C399.278229,848.521057 398.142181,850.040771 398.447174,850.429321 
	C399.537354,851.817993 401.111877,853.786011 402.511230,853.792480 
	C406.732544,853.812073 404.320984,850.166626 405.000366,848.166626 
	C407.688629,847.776611 410.376862,847.386597 413.784363,847.180786 
	C417.815613,850.681641 421.192810,849.128845 422.704163,846.102844 
	C425.374725,840.755798 428.240082,837.756165 434.369293,840.942993 
	C435.023682,841.283203 436.004150,840.996338 436.833344,841.000305 
	C436.466309,841.937134 436.099274,842.873901 435.039856,843.877563 
	C431.743225,842.973450 429.542084,842.264343 427.603485,845.572449 
	C424.924408,850.143921 422.172638,854.972046 415.629456,855.825378 
	C416.628082,857.598267 417.336182,858.855347 418.044312,860.112427 
	C416.603302,860.674316 415.162292,861.236145 413.351379,861.430542 
	C411.554810,858.299438 405.056793,855.920166 401.085022,857.228516 
	C398.235687,858.167175 395.928101,859.596313 393.291504,856.528137 
	C392.632568,855.761292 389.793671,856.867859 387.956665,857.113403 
	C387.007416,856.287781 386.058197,855.462097 385.387695,854.326660 
	C388.480469,853.999146 389.953827,853.408020 387.825592,850.303406 
	C382.402679,842.392822 382.464630,842.350342 376.600006,848.000000 
	C375.133331,848.000000 374.066681,848.000000 373.000000,848.000000 
M396.669647,846.823425 
	C395.883575,846.850830 395.097504,846.878174 394.311432,846.905579 
	C394.460602,847.472656 394.609772,848.039673 394.759003,848.606812 
	C395.447845,848.238464 396.136719,847.870117 396.669647,846.823425 
z"/>
<path fill="#FFFFFF" opacity="1.000000" stroke="none" 
	d="
M366.241425,800.729736 
	C362.344177,794.152283 363.902161,787.440674 370.349457,785.540527 
	C372.954407,784.772827 377.042633,786.469666 379.479370,788.326477 
	C382.795502,790.853394 382.877991,796.745728 380.667480,799.857971 
	C377.049866,804.951538 371.020691,805.440918 366.241425,800.729736 
z"/>
<path fill="#FFFFFF" opacity="1.000000" stroke="none" 
	d="
M279.602844,785.085388 
	C280.287140,786.972290 280.573853,788.777954 281.102539,792.107544 
	C273.996582,785.849731 267.986969,790.416016 262.093567,791.308960 
	C259.845612,791.649597 257.768433,794.980591 256.174042,797.329285 
	C253.855209,800.745178 252.043839,804.505554 250.016068,808.119019 
	C249.483368,807.946899 248.950684,807.774841 248.417984,807.602783 
	C248.417984,806.182251 248.417984,804.761780 248.154907,803.146606 
	C248.529190,795.858093 252.695282,790.672485 258.211121,787.144836 
	C264.556061,783.086792 271.738342,781.035645 279.602844,785.085388 
z"/>
<path fill="#FFFFFF" opacity="1.000000" stroke="none" 
	d="
M377.000000,848.000000 
	C382.464630,842.350342 382.402679,842.392822 387.825592,850.303406 
	C389.953827,853.408020 388.480469,853.999146 385.274719,854.028503 
	C383.264252,854.270081 381.067200,853.905151 380.120270,854.825928 
	C373.805481,860.965942 366.910583,864.859680 357.380676,862.022461 
	C357.003143,858.021912 357.761078,855.870056 362.721069,856.446167 
	C366.400513,856.873535 370.994202,856.434937 373.290771,851.315918 
	C374.795319,849.955811 375.897644,848.977905 377.000000,848.000000 
z"/>
<path fill="#FFFFFF" opacity="1.000000" stroke="none" 
	d="
M399.992859,835.653687 
	C398.945190,836.874023 398.155518,837.892395 397.143066,838.585205 
	C395.971222,839.387085 394.603363,839.902527 393.320618,840.542419 
	C393.345032,839.096008 393.143402,837.596497 393.466980,836.220459 
	C393.716370,835.159851 394.766083,834.313904 395.209656,833.266602 
	C395.958984,831.497314 396.853333,829.684265 397.071777,827.817688 
	C397.496338,824.189697 400.132568,822.677612 405.187897,823.561462 
	C405.804474,818.184753 411.382385,812.338135 416.666504,811.952087 
	C417.087677,811.932800 417.027496,811.962769 417.066620,812.325562 
	C417.418488,814.210938 417.731232,815.733521 418.128021,817.665100 
	C415.750000,817.805298 414.030243,817.906738 412.850098,817.976318 
	C411.866364,822.471558 410.933167,826.735779 409.645203,831.034790 
	C408.155731,831.394043 407.021027,831.718628 405.886322,832.043152 
	C405.415833,830.427795 404.945343,828.812439 404.119293,825.976379 
	C402.563873,829.635132 401.358124,832.471436 399.992859,835.653687 
z"/>
<path fill="#FFFFFF" opacity="1.000000" stroke="none" 
	d="
M265.447449,806.889221 
	C261.263947,806.442383 260.396667,802.523132 261.579041,800.829468 
	C263.319214,798.336731 266.820801,796.248535 269.843628,795.794006 
	C271.584778,795.532104 274.584595,798.445740 275.722595,800.610779 
	C277.344910,803.697205 277.778320,807.408447 278.735046,810.909485 
	C282.100677,810.372681 285.191406,804.795288 286.904236,811.775940 
	C280.063934,820.690186 276.411804,817.108765 271.609192,810.942383 
	C270.948151,810.093628 271.563568,808.246948 271.596069,806.862488 
	C271.639526,805.012512 271.690796,803.162659 271.738708,801.312744 
	C269.900452,802.324402 267.985992,803.226562 266.273529,804.418884 
	C265.799683,804.748779 265.926544,805.941467 265.447449,806.889221 
z"/>
<path fill="#FFFFFF" opacity="1.000000" stroke="none" 
	d="
M321.061523,807.557739 
	C320.456512,808.686829 319.448822,809.320435 319.217621,810.166321 
	C318.814087,811.642456 318.888580,813.249084 318.762695,814.801025 
	C317.390686,814.505859 316.018646,814.210754 314.646606,813.915649 
	C315.070404,812.249146 315.494202,810.582520 315.917969,808.915955 
	C315.663116,808.843079 315.408234,808.770203 315.153381,808.697327 
	C315.814667,805.888245 316.393768,803.056458 317.160858,800.276672 
	C317.894867,797.616638 319.037079,795.047180 319.501831,792.351990 
	C319.604279,791.757812 317.701813,790.612061 316.559143,790.056519 
	C314.778076,789.190674 312.857239,788.612427 310.852051,787.495605 
	C313.698853,784.505371 316.242493,780.838806 321.020111,784.403320 
	C324.952850,787.337463 326.191467,791.248596 324.397308,796.179260 
	C323.089355,799.773926 322.125641,803.493835 321.061523,807.557739 
z"/>
<path fill="#FFFFFF" opacity="1.000000" stroke="none" 
	d="
M436.912231,840.632019 
	C436.004150,840.996338 435.023682,841.283203 434.369293,840.942993 
	C428.240082,837.756165 425.374725,840.755798 422.704163,846.102844 
	C421.192810,849.128845 417.815613,850.681641 414.198059,847.158203 
	C417.582214,842.425659 421.669891,838.158569 424.832642,833.290588 
	C427.258911,829.556213 429.947693,827.656921 433.940613,829.593323 
	C438.481659,831.795532 439.276001,835.471558 436.912231,840.632019 
z"/>
<path fill="#FFFFFF" opacity="1.000000" stroke="none" 
	d="
M357.089172,813.391785 
	C361.929993,814.903015 363.058105,817.417908 361.183105,821.616943 
	C359.738678,824.851746 357.982117,828.047546 357.203461,831.452576 
	C356.337891,835.237732 354.206604,836.359802 350.851685,835.964722 
	C347.730377,835.597046 344.643707,834.935974 341.217163,834.177673 
	C343.564972,830.487976 346.201874,826.931885 351.604889,830.284729 
	C353.457581,824.630554 355.234619,819.207214 357.089172,813.391785 
z"/>
<path fill="#FFFFFF" opacity="1.000000" stroke="none" 
	d="
M318.089325,828.396179 
	C320.027069,828.106384 321.887482,828.213074 323.778687,828.321533 
	C321.410187,834.624878 319.079742,840.189209 317.334473,845.931458 
	C316.911346,847.323547 318.002319,849.669312 319.121887,850.935852 
	C321.595459,853.733887 324.277405,856.210999 322.103516,860.755310 
	C316.146973,859.942200 313.385712,855.057617 312.970520,849.516663 
	C312.395508,841.843506 316.521332,835.723145 318.089325,828.396179 
z"/>
<path fill="#FFFFFF" opacity="1.000000" stroke="none" 
	d="
M307.548157,795.115479 
	C311.534454,794.933533 312.743317,796.682190 311.461884,800.058289 
	C309.718079,804.652588 307.847687,809.198975 306.115143,813.797424 
	C305.598724,815.168091 305.264160,816.627686 305.017548,818.075684 
	C304.402039,821.689453 302.554352,823.281189 298.509033,822.042114 
	C300.050171,816.197510 301.896515,810.382019 303.832031,804.596436 
	C304.880737,801.461792 306.081390,798.377930 307.548157,795.115479 
z"/>
<path fill="#FFFFFF" opacity="1.000000" stroke="none" 
	d="
M294.461548,828.977051 
	C296.174500,828.357544 297.463226,827.757935 298.752777,827.157898 
	C300.558411,831.372559 299.533264,833.851868 295.656403,833.919922 
	C292.428467,833.976501 290.434753,835.055603 289.191223,838.112000 
	C288.395721,840.067078 287.050903,841.855591 285.690948,843.502991 
	C284.857330,844.512939 283.433685,845.826904 282.450928,845.694824 
	C281.512634,845.568787 280.802429,843.745850 279.974731,842.277283 
	C281.292969,839.110596 282.691772,836.363831 283.949371,833.553894 
	C285.981873,829.012817 289.836273,828.656738 294.461548,828.977051 
z"/>
<path fill="#FFFFFF" opacity="1.000000" stroke="none" 
	d="
M536.535278,814.133545 
	C538.299438,813.682556 539.715942,813.405273 541.156860,813.123169 
	C541.471985,813.740723 541.953369,814.233215 541.862976,814.573792 
	C540.187073,820.882141 538.548279,827.204163 536.663818,833.451599 
	C535.854553,836.134827 534.377869,836.797485 532.067932,834.364624 
	C530.325439,832.529358 528.041443,831.208374 525.979248,829.270630 
	C527.661926,828.668213 529.363770,828.453674 532.143127,828.103271 
	C533.284851,824.208862 534.736267,819.257996 536.535278,814.133545 
z"/>
<path fill="#FFFFFF" opacity="1.000000" stroke="none" 
	d="
M336.463928,826.867737 
	C330.428070,826.542542 329.967896,825.604980 332.404724,820.285156 
	C329.521210,816.725830 326.761841,813.319763 324.001465,809.540161 
	C325.760132,809.123474 327.871582,808.425293 329.219513,809.149048 
	C335.475037,812.507751 338.477173,819.865906 336.463928,826.867737 
z"/>
<path fill="#FFFFFF" opacity="1.000000" stroke="none" 
	d="
M418.408539,860.058594 
	C417.336182,858.855347 416.628082,857.598267 415.629456,855.825378 
	C422.172638,854.972046 424.924408,850.143921 427.603485,845.572449 
	C429.542084,842.264343 431.743225,842.973450 434.731079,843.993408 
	C433.306641,849.700500 429.033783,853.356873 424.553833,856.764099 
	C422.812469,858.088440 420.710510,858.938599 418.408539,860.058594 
z"/>
<path fill="#FFFFFF" opacity="1.000000" stroke="none" 
	d="
M410.000000,831.000000 
	C410.933167,826.735779 411.866364,822.471558 412.850098,817.976318 
	C414.030243,817.906738 415.750000,817.805298 418.128021,817.665100 
	C417.731232,815.733521 417.418488,814.210938 417.081970,812.295654 
	C422.255920,813.479309 422.218353,818.071045 422.508636,822.598938 
	C420.369476,823.866394 417.699554,824.374817 417.241486,825.667175 
	C415.936096,829.350220 413.360687,830.519104 410.000000,831.000000 
z"/>
<path fill="#FFFFFF" opacity="1.000000" stroke="none" 
	d="
M388.093109,857.444153 
	C389.793671,856.867859 392.632568,855.761292 393.291504,856.528137 
	C395.928101,859.596313 398.235687,858.167175 401.085022,857.228516 
	C405.056793,855.920166 411.554810,858.299438 412.990906,861.448242 
	C404.082825,864.512634 395.853485,862.991211 388.093109,857.444153 
z"/>
<path fill="#FFFFFF" opacity="1.000000" stroke="none" 
	d="
M243.007446,816.346069 
	C244.554871,815.710693 245.943069,815.421082 247.181015,815.162781 
	C247.501144,815.645081 247.697922,815.812927 247.668320,815.915344 
	C246.050171,821.511475 244.667053,827.196594 242.640991,832.642334 
	C241.924835,834.567322 239.641357,836.146057 237.804565,832.463135 
	C239.403870,826.959106 241.126038,821.825500 243.007446,816.346069 
z"/>
<path fill="#FFFFFF" opacity="1.000000" stroke="none" 
	d="
M329.912750,845.622925 
	C327.461395,845.836304 327.107025,846.779602 327.674591,849.002625 
	C327.853546,849.703613 326.138580,850.888123 325.290405,851.851318 
	C324.592651,850.911438 323.127197,849.760986 323.318146,849.064819 
	C324.905060,843.279541 326.780731,837.572510 328.624115,831.859680 
	C328.808533,831.288147 329.358032,830.834534 330.429688,829.401306 
	C331.298615,831.960876 331.914032,833.773804 332.818665,835.817627 
	C332.069275,839.114197 331.030731,842.179871 329.912750,845.622925 
z"/>
<path fill="#FFFFFF" opacity="1.000000" stroke="none" 
	d="
M410.000000,831.000000 
	C413.360687,830.519104 415.936096,829.350220 417.241486,825.667175 
	C417.699554,824.374817 420.369476,823.866394 422.431396,822.999878 
	C422.947968,832.112061 418.291412,837.256042 410.151306,836.041992 
	C409.987823,833.841492 409.993927,832.420715 410.000000,831.000000 
z"/>
<path fill="#FFFFFF" opacity="1.000000" stroke="none" 
	d="
M344.437744,855.913696 
	C343.098755,854.991394 341.535248,854.063843 341.264282,852.848267 
	C341.097565,852.100281 342.842163,850.841370 343.845337,849.942139 
	C344.786285,849.098816 345.894104,848.444214 346.904236,847.674744 
	C347.957764,846.872253 348.982483,846.031982 350.019836,845.208252 
	C350.802399,846.372742 351.773529,847.456116 352.318634,848.722778 
	C352.963165,850.220459 353.209961,851.885376 353.682526,853.461731 
	C354.500122,856.188904 353.264618,857.148987 350.291626,857.027771 
	C348.174988,856.622559 346.466888,856.204773 344.437744,855.913696 
z"/>
<path fill="#FFFFFF" opacity="1.000000" stroke="none" 
	d="
M257.911011,826.678894 
	C257.019379,827.521118 256.260071,828.322266 255.378082,828.494080 
	C254.174698,828.728699 252.877899,828.483887 251.621124,828.444519 
	C251.680038,827.226257 251.459000,825.908081 251.851410,824.808838 
	C252.940506,821.758240 254.260757,818.788391 255.535187,815.806152 
	C256.807404,812.829102 259.061066,811.531799 262.704651,812.030457 
	C262.407074,814.113403 261.699188,816.184631 260.584656,818.688354 
	C259.489960,821.094910 258.801910,823.068970 258.113892,825.043030 
	C258.072144,825.481140 258.030396,825.919250 257.911011,826.678894 
z"/>
<path fill="#FFFFFF" opacity="1.000000" stroke="none" 
	d="
M261.443451,862.910645 
	C259.807953,861.027466 258.616425,859.221619 257.424927,857.415710 
	C259.857025,857.404480 262.292328,857.309631 264.720428,857.402954 
	C267.846344,857.523071 270.966431,857.794006 274.544525,858.000000 
	C275.000000,858.708374 275.000000,859.416687 275.000183,860.479248 
	C270.629395,861.551575 266.258423,862.269775 261.443451,862.910645 
z"/>
<path fill="#FFFFFF" opacity="1.000000" stroke="none" 
	d="
M366.564789,847.939697 
	C367.513672,849.075256 368.403992,850.235229 368.505981,851.460815 
	C368.567871,852.204407 366.900421,853.766541 366.873505,853.747314 
	C363.552826,851.384399 360.220093,849.011780 357.189941,846.302002 
	C356.824707,845.975342 357.983002,842.771484 358.673615,842.678833 
	C360.164886,842.478821 361.811066,843.433838 363.754272,843.979309 
	C363.757996,845.178162 363.401337,846.313965 362.957764,847.726624 
	C364.115051,847.821960 365.144470,847.906799 366.564789,847.939697 
z"/>
<path fill="#FFFFFF" opacity="1.000000" stroke="none" 
	d="
M367.000000,814.410156 
	C368.798737,813.973389 370.597443,813.946777 372.756775,813.940063 
	C372.349335,817.550171 371.581299,821.140320 370.466095,824.884521 
	C364.716431,824.554749 364.281311,823.816162 366.200562,819.135803 
	C366.743896,817.810852 366.748352,816.264893 367.000000,814.410156 
z"/>
<path fill="#FFFFFF" opacity="1.000000" stroke="none" 
	d="
M396.604919,810.940979 
	C401.977844,816.088379 395.218353,818.065430 393.840424,821.385681 
	C392.728638,824.064575 390.300232,822.844849 388.211304,821.104187 
	C390.678741,817.633240 393.466461,814.313843 396.604919,810.940979 
z"/>
<path fill="#FFFFFF" opacity="1.000000" stroke="none" 
	d="
M302.910706,857.621338 
	C300.938751,857.219482 297.344666,856.160461 297.419708,855.701965 
	C297.995209,852.185669 298.348145,848.130188 302.981598,847.013428 
	C303.438721,848.454468 303.824402,849.670349 304.521729,850.942871 
	C304.218292,853.080322 303.603210,855.161316 302.910706,857.621338 
z"/>
<path fill="#FFFFFF" opacity="1.000000" stroke="none" 
	d="
M386.034149,826.311768 
	C387.725006,826.935974 389.283325,827.871582 390.841675,828.807251 
	C388.903809,831.176880 387.010559,835.454956 385.018463,835.501526 
	C381.364319,835.586853 383.356812,832.094116 383.945618,829.544922 
	C384.634125,828.318787 385.267883,827.470947 386.034149,826.311768 
z"/>
<path fill="#FFFFFF" opacity="1.000000" stroke="none" 
	d="
M337.648224,842.015503 
	C339.033142,843.326965 341.375580,844.976562 341.130341,846.015076 
	C339.909943,851.183289 337.751862,851.935181 331.965790,850.282837 
	C332.907593,849.138855 333.937897,847.887329 334.950439,846.274170 
	C334.932709,845.912476 334.962311,845.972961 335.292725,845.921265 
	C336.067871,844.874878 336.512634,843.880310 336.957397,842.885681 
	C336.956482,842.528931 337.108215,842.257690 337.648224,842.015503 
z"/>
<path fill="#FFFFFF" opacity="1.000000" stroke="none" 
	d="
M274.532715,845.979004 
	C276.187225,847.011108 277.488617,848.065002 278.790039,849.118896 
	C276.535583,850.307251 274.281158,851.495544 272.026672,852.683838 
	C271.653564,851.079895 271.280457,849.475952 270.953430,847.519287 
	C272.059540,846.777954 273.119537,846.389343 274.532715,845.979004 
z"/>
<path fill="#FFFFFF" opacity="1.000000" stroke="none" 
	d="
M334.403473,862.058899 
	C333.685272,860.119263 333.130829,858.123169 333.161041,856.135925 
	C333.166016,855.807617 336.135498,854.851257 337.008942,855.381409 
	C338.077850,856.030151 338.381683,857.939392 339.028107,859.710449 
	C337.614136,860.746704 336.188354,861.376038 334.403473,862.058899 
z"/>
<path fill="#FFFFFF" opacity="1.000000" stroke="none" 
	d="
M285.663269,850.854004 
	C286.000000,852.342651 286.000000,853.685364 286.000183,855.430664 
	C285.243073,856.160645 284.485809,856.487915 283.423676,856.926880 
	C281.874237,855.804382 279.449615,854.387024 279.607361,853.370361 
	C280.071533,850.378662 282.240936,849.085327 285.663269,850.854004 
z"/>
<path fill="#FFFFFF" opacity="1.000000" stroke="none" 
	d="
M310.375305,834.966064 
	C308.475159,834.330627 306.833191,833.621094 305.191223,832.911560 
	C306.465942,830.832947 307.740631,828.754333 309.015350,826.675781 
	C309.543549,826.896912 310.071777,827.117981 310.600006,827.339111 
	C310.787354,828.893494 310.974701,830.447876 311.227966,832.461060 
	C311.073792,833.577209 310.853638,834.234558 310.375305,834.966064 
z"/>
<path fill="#FFFFFF" opacity="1.000000" stroke="none" 
	d="
M404.629669,848.089233 
	C404.320984,850.166626 406.732544,853.812073 402.511230,853.792480 
	C401.111877,853.786011 399.537354,851.817993 398.447174,850.429321 
	C398.142181,850.040771 399.278229,848.521057 399.900299,847.205627 
	C401.451233,847.264648 402.855103,847.638306 404.629669,848.089233 
z"/>
<path fill="#FFFFFF" opacity="1.000000" stroke="none" 
	d="
M287.029938,856.379944 
	C292.584015,854.572266 293.571198,855.404541 294.000183,862.436890 
	C289.863403,862.872375 288.392731,859.935547 287.029938,856.379944 
z"/>
<path fill="#FFFFFF" opacity="1.000000" stroke="none" 
	d="
M242.015289,854.351501 
	C241.961746,853.791321 241.951935,853.465698 241.968903,853.141479 
	C242.062973,851.344177 239.822815,848.437500 243.458344,848.325378 
	C244.771530,848.284912 246.164078,850.818115 247.520416,852.176880 
	C246.236038,853.123779 244.951675,854.070740 243.275391,855.029175 
	C242.527161,855.042480 242.256454,854.891174 242.015289,854.351501 
z"/>
<path fill="#FFFFFF" opacity="1.000000" stroke="none" 
	d="
M253.910721,840.610596 
	C253.183212,840.999756 252.459488,841.184509 251.897598,840.961487 
	C250.579163,840.438293 248.927277,840.007996 248.207382,838.981262 
	C247.710373,838.272400 248.545380,836.629578 248.785110,835.404175 
	C250.351929,835.810425 251.918747,836.216675 253.796814,836.835571 
	C254.068069,838.105774 254.028061,839.163269 253.910721,840.610596 
z"/>
<path fill="#FFFFFF" opacity="1.000000" stroke="none" 
	d="
M315.342285,824.016602 
	C313.229065,823.561279 309.718933,825.046936 310.708069,821.013000 
	C311.005524,819.799805 313.251526,818.164673 314.496613,818.252808 
	C318.193817,818.514343 315.964874,821.297729 316.006470,823.470215 
	C316.000000,823.833374 315.569885,823.990906 315.342285,824.016602 
z"/>
<path fill="#FFFFFF" opacity="1.000000" stroke="none" 
	d="
M236.089294,840.395264 
	C236.655746,839.999756 237.184067,839.878662 237.626953,840.021851 
	C239.197037,840.529480 240.806122,841.004211 242.232849,841.794067 
	C242.521210,841.953674 242.131531,844.179749 241.963409,844.191895 
	C240.285782,844.312988 238.589066,844.169556 236.532166,844.050598 
	C236.115082,842.930603 236.063522,841.860718 236.089294,840.395264 
z"/>
<path fill="#FFFFFF" opacity="1.000000" stroke="none" 
	d="
M365.878723,838.344727 
	C365.232483,838.260132 364.429932,838.370178 363.946960,838.028503 
	C362.726288,837.165100 361.649384,836.098511 360.514893,835.113281 
	C361.987640,834.567627 363.442657,833.961975 364.945251,833.517212 
	C365.336304,833.401550 365.876038,833.788391 366.731079,833.993347 
	C367.072662,834.480469 367.030640,834.918640 366.575623,835.757324 
	C366.069244,836.895752 365.975861,837.633667 365.882477,838.371521 
	C365.882477,838.371521 365.867920,838.333740 365.878723,838.344727 
z"/>
<path fill="#FFFFFF" opacity="1.000000" stroke="none" 
	d="
M289.910645,804.561401 
	C285.116577,802.294006 284.940948,800.270447 289.490112,797.045532 
	C289.884888,799.373962 289.936401,801.748169 289.910645,804.561401 
z"/>
<path fill="#FFFFFF" opacity="1.000000" stroke="none" 
	d="
M289.060028,793.598694 
	C287.225830,793.850952 285.336975,793.744202 283.448090,793.637451 
	C284.092529,792.442444 284.736969,791.247375 285.747742,790.004761 
	C287.077820,791.051453 288.041565,792.145569 289.060028,793.598694 
z"/>
<path fill="#FFFFFF" opacity="1.000000" stroke="none" 
	d="
M551.976501,811.628174 
	C551.019653,813.307800 549.927856,814.660767 548.836121,816.013733 
	C548.262634,815.828003 547.689148,815.642273 547.115662,815.456543 
	C547.694336,813.592896 548.273010,811.729309 548.925537,809.516113 
	C549.946777,809.878235 550.894165,810.589844 551.976501,811.628174 
z"/>
<path fill="#FFFFFF" opacity="1.000000" stroke="none" 
	d="
M409.645233,831.034790 
	C409.993927,832.420715 409.987823,833.841492 409.969666,835.688354 
	C408.688080,834.971985 407.418549,833.829529 406.017670,832.365112 
	C407.021027,831.718628 408.155731,831.394043 409.645233,831.034790 
z"/>
<path fill="#FFFFFF" opacity="1.000000" stroke="none" 
	d="
M258.440094,824.898071 
	C258.801910,823.068970 259.489960,821.094910 260.505676,819.060364 
	C260.144318,820.917664 259.455322,822.835388 258.440094,824.898071 
z"/>
<path fill="#FFFFFF" opacity="1.000000" stroke="none" 
	d="
M336.647888,843.007263 
	C336.512634,843.880310 336.067871,844.874878 335.262817,845.905823 
	C335.381165,845.004395 335.859772,844.066589 336.647888,843.007263 
z"/>
<path fill="#FFFFFF" opacity="1.000000" stroke="none" 
	d="
M366.129395,838.218018 
	C365.975861,837.633667 366.069244,836.895752 366.497986,836.078918 
	C366.681061,836.688110 366.528687,837.376282 366.129395,838.218018 
z"/>
<path fill="#000000" opacity="1.000000" stroke="none" 
	d="
M495.219360,827.404785 
	C497.204559,825.169922 498.997955,823.270020 500.791321,821.370178 
	C501.142242,821.657837 501.493195,821.945557 501.844116,822.233215 
	C501.844116,824.330017 501.844116,826.426880 501.844116,828.026123 
	C499.265320,829.401917 496.973785,830.624390 493.938812,832.243530 
	C494.374878,830.439697 494.701202,829.089722 495.219360,827.404785 
z"/>
<path fill="#000000" opacity="1.000000" stroke="none" 
	d="
M492.541809,842.218628 
	C493.497528,843.818176 494.107849,845.227478 494.815674,846.861938 
	C493.503845,847.623474 492.166534,848.399841 490.563019,849.330688 
	C488.314392,846.013977 488.074249,843.547852 492.541809,842.218628 
z"/>
<path fill="#FFFFFF" opacity="1.000000" stroke="none" 
	d="
M536.834290,873.189819 
	C535.605591,875.540527 534.059326,877.199951 532.046814,874.635742 
	C531.522888,873.968140 532.425171,872.181274 532.672363,870.908569 
	C534.047913,871.549927 535.423462,872.191345 536.834290,873.189819 
z"/>
<path fill="#FFFFFF" opacity="1.000000" stroke="none" 
	d="
M286.410187,851.000000 
	C286.273834,849.594238 286.096741,847.759888 286.928711,846.884766 
	C288.130676,845.620300 290.049957,845.018494 291.730804,844.289917 
	C291.808258,844.256348 293.105042,846.036926 292.877106,846.477173 
	C292.057922,848.059265 290.979065,849.591003 289.680542,850.800598 
	C289.136963,851.307007 287.797821,850.959412 286.410187,851.000000 
z"/>
<path fill="#FFFFFF" opacity="1.000000" stroke="none" 
	d="
M304.996521,836.059692 
	C306.182495,837.054565 306.982758,838.050049 307.783051,839.045471 
	C306.775055,839.676025 305.797333,840.725220 304.749207,840.801086 
	C303.951355,840.858765 303.064056,839.680542 302.216583,839.052185 
	C303.014679,838.054871 303.812775,837.057556 304.996521,836.059692 
z"/>
<path fill="#FFFFFF" opacity="1.000000" stroke="none" 
	d="
M366.993011,813.609680 
	C366.675720,813.999817 366.310913,814.097473 366.034119,813.982727 
	C364.716187,813.436523 363.422211,812.832642 362.119690,812.249268 
	C362.610748,811.537048 363.101776,810.824951 363.592834,810.112854 
	C364.723907,811.148315 365.854950,812.183838 366.993011,813.609680 
z"/>
<path fill="#FFFFFF" opacity="1.000000" stroke="none" 
	d="
M373.000000,851.000000 
	C372.082306,850.619934 371.164642,850.239807 370.246948,849.859741 
	C370.918335,849.245117 371.589722,848.630493 372.630554,848.382935 
	C373.000000,849.500000 373.000000,850.250000 373.000000,851.000000 
z"/>
<path fill="#FFFFFF" opacity="1.000000" stroke="none" 
	d="
M275.369904,857.991882 
	C275.409454,857.076111 275.818909,856.152283 276.228363,855.228394 
	C276.729004,855.502502 277.229645,855.776611 277.730225,856.050720 
	C277.066772,856.695068 276.403290,857.339417 275.369904,857.991882 
z"/>
<path fill="#FFFFFF" opacity="1.000000" stroke="none" 
	d="
M249.466629,810.607910 
	C249.350449,811.058533 249.066727,811.334778 248.764999,811.589722 
	C248.757248,811.596191 248.551697,811.368591 248.438431,811.250183 
	C248.724548,810.977051 249.010635,810.703918 249.466629,810.607910 
z"/>
<path fill="#FFFFFF" opacity="1.000000" stroke="none" 
	d="
M373.346497,850.966858 
	C373.000000,850.250000 373.000000,849.500000 373.000000,848.375000 
	C374.066681,848.000000 375.133331,848.000000 376.599976,848.000000 
	C375.897644,848.977905 374.795319,849.955811 373.346497,850.966858 
z"/>
<path fill="#FFFFFF" opacity="1.000000" stroke="none" 
	d="
M396.747620,847.162598 
	C396.136719,847.870117 395.447845,848.238464 394.758972,848.606812 
	C394.609772,848.039673 394.460602,847.472656 394.311432,846.905579 
	C395.097504,846.878174 395.883575,846.850830 396.747620,847.162598 
z"/>
</svg>